<svg width="71" height="71" viewBox="0 0 71 71" fill="none" xmlns="http://www.w3.org/2000/svg">
<g clip-path="url(#clip0_63_112)">
<path d="M35.5773 70.5769C54.9071 70.5769 70.5771 54.9069 70.5771 35.577C70.5771 16.2471 54.9071 0.577148 35.5773 0.577148C16.2474 0.577148 0.577393 16.2471 0.577393 35.577C0.577393 54.9069 16.2474 70.5769 35.5773 70.5769Z" fill="#A3E72D"/>
<path d="M70.577 35.5771C70.577 54.9069 54.9071 70.5769 35.5771 70.5769C31.9983 70.5769 28.5444 70.04 25.2917 69.0412C26.7932 69.2378 28.3243 69.3392 29.8803 69.3392C49.2101 69.3392 64.8802 53.6693 64.8802 34.3393C64.8802 18.5883 54.4763 5.26884 40.1657 0.875244C57.3277 3.12276 70.577 17.8032 70.577 35.5771Z" fill="#80CF00"/>
<path d="M70.5612 36.6359C70.571 36.2844 70.5767 35.9313 70.5767 35.577C70.5767 35.2226 70.571 34.8697 70.5612 34.5181H51.498C51.4513 32.0686 51.2523 29.6051 50.8979 27.1543C50.4687 24.1882 49.832 21.3335 48.9905 18.613C52.3393 18.1203 55.5681 17.4314 58.6585 16.5476C60.114 16.1312 61.9408 15.5749 63.7607 14.8224C63.3244 14.2294 62.8698 13.6521 62.3969 13.0902C60.8566 13.6916 59.3248 14.1546 58.0769 14.5104C54.9625 15.4012 51.7013 16.0902 48.313 16.5716C47.6381 14.6713 46.8588 12.8402 45.9778 11.0882C43.9222 6.99687 41.4009 3.51259 38.4587 0.694683C37.6568 0.628374 36.845 0.590229 36.0275 0.580386C35.8778 0.579019 35.7283 0.577515 35.5772 0.577515C35.4261 0.577515 35.2766 0.578882 35.1268 0.580386C34.3094 0.590229 33.4977 0.628374 32.6957 0.694683C29.7535 3.51259 27.2322 6.99687 25.1766 11.0882C24.283 12.8684 23.4924 14.7291 22.8104 16.6619C18.1685 16.0647 13.3359 15.0003 8.74477 13.1042C8.2746 13.6646 7.82151 14.2393 7.38812 14.8295C12.2079 16.8963 17.2748 18.0569 22.1342 18.7105C21.3083 21.4028 20.68 24.2236 20.2565 27.1544C19.9021 29.6052 19.7031 32.0688 19.6564 34.5182H0.593467C0.583623 34.8697 0.577881 35.2227 0.577881 35.5771C0.577881 35.9315 0.583486 36.2844 0.593467 36.636H19.6511C19.7386 42.1207 20.5801 47.4939 22.1274 52.4451C17.2695 53.0987 12.2068 54.2578 7.38839 56.3246C7.82179 56.9147 8.27501 57.4893 8.74505 58.0498C13.3389 56.1525 18.1729 55.0893 22.8163 54.4921C23.5857 56.6198 24.4893 58.6584 25.5255 60.5783C27.6474 64.5116 30.1082 67.8772 32.734 70.4621C33.5231 70.5257 34.3209 70.5638 35.1256 70.5737H35.127C35.2767 70.5751 35.4263 70.5766 35.5773 70.5766C35.7284 70.5766 35.878 70.5752 36.0277 70.5737H36.0291C36.8338 70.5638 37.6314 70.5257 38.422 70.4621C41.048 67.8772 43.5073 64.5114 45.6292 60.5783C46.6513 58.685 47.545 56.6776 48.3059 54.581C51.6969 55.0639 54.9595 55.7513 58.0767 56.6437C59.3247 56.9994 60.8565 57.4625 62.3968 58.0639C62.8697 57.502 63.3243 56.9246 63.7605 56.3317C61.9408 55.5792 60.114 55.023 58.6583 54.6064C55.5693 53.7241 52.3434 53.0351 48.9961 52.5424C50.5632 47.5645 51.4159 42.1559 51.5034 36.6359H70.5612ZM35.5773 0.951714C40.1049 4.76918 43.7459 10.2934 46.1502 16.8498C42.4118 17.2804 38.5266 17.4682 34.5171 17.4103C31.5976 17.3695 28.3604 17.2521 24.9819 16.9105C27.3876 10.3288 31.0357 4.78052 35.5773 0.951714ZM22.3532 27.4579C22.7795 24.5045 23.4291 21.6597 24.2818 18.9674C27.9058 19.3542 31.3731 19.4827 34.4876 19.528C34.9689 19.5351 35.449 19.5378 35.9276 19.5378C39.6815 19.5378 43.3296 19.3247 46.852 18.8997C47.7145 21.6118 48.3711 24.4805 48.8016 27.4579C49.1404 29.8085 49.3338 32.1705 49.3805 34.5182H21.7743C21.821 32.1705 22.0144 29.8085 22.3532 27.4579ZM43.7657 59.5732C41.3741 64.0048 38.5577 67.6584 35.5773 70.1996C32.597 67.6584 29.7806 64.0048 27.389 59.5732C26.4784 57.8861 25.6737 56.103 24.979 54.2437C28.3589 53.9021 31.5961 53.7849 34.5171 53.7439C38.5265 53.6861 42.4131 53.8738 46.1529 54.3044C45.4626 56.1411 44.6664 57.9044 43.7657 59.5732ZM46.8673 52.2558C42.8918 51.7758 38.7566 51.564 34.4874 51.6261C31.3687 51.6714 27.8958 51.8011 24.2662 52.188C22.7047 47.3371 21.8549 42.0458 21.7674 36.6359H49.3874C49.2998 42.0712 48.4428 47.3866 46.8673 52.2558Z" fill="#6DB000"/>
<path d="M49.1697 59.1911C51.482 56.6129 53.3882 53.7509 54.4034 50.3528C54.9491 48.5265 55.2292 46.6215 55.2292 44.7153C55.2292 33.8618 46.4307 25.0632 35.5771 25.0632C24.7236 25.0632 15.925 33.8618 15.925 44.7153C15.925 48.3328 16.9316 51.9174 18.828 54.9989C22.3076 60.653 28.6384 65.1976 33.411 69.7291C34.5974 70.8557 36.456 70.8599 37.6477 69.739C41.3111 66.293 45.6982 63.0617 49.1697 59.1911Z" fill="#FF5757"/>
<path d="M55.2291 44.7154C55.2291 46.6213 54.9496 48.5258 54.4032 50.3526C53.3881 53.7508 51.4822 56.6124 49.1698 59.1904C45.6982 63.0614 41.3119 66.2931 37.6482 69.7392C36.4567 70.8602 34.5973 70.8559 33.4114 69.7294C33.2617 69.5881 33.1122 69.4455 32.9597 69.3044C36.523 66.0192 40.6877 62.8978 44.0126 59.1904C46.3251 56.6124 48.2309 53.7508 49.2461 50.3526C49.7924 48.5258 50.072 46.6213 50.072 44.7154C50.072 34.7355 42.6348 26.4936 32.9994 25.2315C33.8436 25.1199 34.7034 25.0635 35.5773 25.0635C46.4309 25.0635 55.2291 33.8617 55.2291 44.7154Z" fill="#F72C2C"/>
<path d="M35.5771 55.8629C41.7106 55.8629 46.6828 50.8908 46.6828 44.7573C46.6828 38.6238 41.7106 33.6516 35.5771 33.6516C29.4436 33.6516 24.4714 38.6238 24.4714 44.7573C24.4714 50.8908 29.4436 55.8629 35.5771 55.8629Z" fill="#FFF5F5"/>
<path d="M46.6821 44.7577C46.6821 50.8905 41.7113 55.8627 35.5771 55.8627C31.9574 55.8627 28.7427 54.1318 26.7168 51.4523C28.4095 52.497 30.4044 53.0999 32.539 53.0999C38.6731 53.0999 43.6454 48.1276 43.6454 41.9934C43.6454 39.479 42.8097 37.1594 41.4008 35.2987C44.5702 37.2556 46.6821 40.7595 46.6821 44.7577Z" fill="#EFE2DD"/>
</g>
<defs>
<clipPath id="clip0_63_112">
<rect width="70" height="70" fill="white" transform="translate(0.577148 0.577148)"/>
</clipPath>
</defs>
</svg>
