<svg width="78" height="79" viewBox="0 0 78 79" fill="none" xmlns="http://www.w3.org/2000/svg">
<g clip-path="url(#clip0_63_132)">
<path d="M38.8018 46.9103C38.3599 46.9103 38.0086 46.5318 38.0488 46.0918C38.4619 41.5682 42.2657 38.0249 46.8969 38.0249C51.5281 38.0249 55.3319 41.5682 55.745 46.0918C55.7851 46.5318 55.4338 46.9103 54.992 46.9103H38.8018Z" fill="#837BBF"/>
<path d="M52.5733 40.0726C51.0308 41.3495 49.0505 42.1177 46.8967 42.1177C44.7429 42.1177 42.7642 41.3495 41.2217 40.0726C42.7612 38.7942 44.7384 38.0244 46.8967 38.0244C49.0551 38.0244 51.0338 38.7942 52.5733 40.0726Z" fill="#6E63B4"/>
<path d="M46.8968 39.0994C50.1524 39.0994 52.7916 36.4602 52.7916 33.2046C52.7916 29.949 50.1524 27.3098 46.8968 27.3098C43.6412 27.3098 41.002 29.949 41.002 33.2046C41.002 36.4602 43.6412 39.0994 46.8968 39.0994Z" fill="#ACA7D4"/>
<path d="M52.792 33.2051C52.792 36.4607 50.1522 39.099 46.8966 39.099C46.1374 39.099 45.413 38.9556 44.7458 38.6945C46.9374 37.8357 48.4905 35.7015 48.4905 33.2051C48.4905 30.7087 46.9374 28.5745 44.7458 27.7142C45.413 27.4531 46.1374 27.3097 46.8966 27.3097C50.1522 27.3097 52.792 29.9495 52.792 33.2051Z" fill="#9790C9"/>
<path d="M23.0078 46.9103C22.5659 46.9103 22.2147 46.5318 22.2548 46.0918C22.6679 41.5682 26.4717 38.0249 31.1029 38.0249C35.7342 38.0249 39.538 41.5682 39.9511 46.0918C39.9912 46.5318 39.6398 46.9103 39.1981 46.9103H23.0078Z" fill="#22C7DB"/>
<path d="M36.7784 40.0726C35.2358 41.3495 33.2571 42.1177 31.1033 42.1177C28.9495 42.1177 26.9693 41.3495 25.4268 40.0726C26.9663 38.7942 28.945 38.0244 31.1033 38.0244C33.2617 38.0244 35.2389 38.7942 36.7784 40.0726Z" fill="#1FB2CC"/>
<path d="M31.1031 39.0994C34.3587 39.0994 36.9979 36.4602 36.9979 33.2046C36.9979 29.949 34.3587 27.3098 31.1031 27.3098C27.8474 27.3098 25.2083 29.949 25.2083 33.2046C25.2083 36.4602 27.8474 39.0994 31.1031 39.0994Z" fill="#A8E7EF"/>
<path d="M36.9986 33.2051C36.9986 36.4607 34.3588 39.099 31.1032 39.099C30.344 39.099 29.6195 38.9556 28.9524 38.6945C31.1439 37.8357 32.697 35.7015 32.697 33.2051C32.697 30.7087 31.1439 28.5745 28.9524 27.7142C29.6195 27.4531 30.344 27.3097 31.1032 27.3097C34.3588 27.3097 36.9986 29.9495 36.9986 33.2051Z" fill="#70D9E6"/>
<path d="M30.9046 51.4589C30.4626 51.4589 30.1114 51.0803 30.1516 50.6404C30.5647 46.1168 34.3685 42.5735 38.9997 42.5735C43.6309 42.5735 47.4347 46.1168 47.8478 50.6404C47.8879 51.0803 47.5366 51.4589 47.0948 51.4589H30.9046Z" fill="#1C96F9"/>
<path d="M44.6748 44.6216C43.1323 45.8985 41.1536 46.6668 38.9998 46.6668C36.846 46.6668 34.8672 45.8985 33.3247 44.6216C34.8642 43.3432 36.8414 42.5735 38.9998 42.5735C41.1581 42.5735 43.1353 43.3432 44.6748 44.6216Z" fill="#1785F8"/>
<path d="M38.9998 43.6481C42.2554 43.6481 44.8946 41.0089 44.8946 37.7533C44.8946 34.4977 42.2554 31.8585 38.9998 31.8585C35.7442 31.8585 33.105 34.4977 33.105 37.7533C33.105 41.0089 35.7442 43.6481 38.9998 43.6481Z" fill="#64B9FC"/>
<path d="M44.8951 37.7527C44.8951 41.0083 42.2553 43.6481 38.9997 43.6481C38.2405 43.6481 37.516 43.5047 36.8489 43.2436C39.0404 42.3833 40.5935 40.2491 40.5935 37.7527C40.5935 35.2563 39.0404 33.1221 36.8489 32.2633C37.516 32.0022 38.2405 31.8588 38.9997 31.8588C42.2553 31.8588 44.8951 34.4971 44.8951 37.7527Z" fill="#31A7FB"/>
<path d="M38.9999 68.1444C23.1416 68.1444 10.2397 55.2428 10.2397 39.3843C10.2397 23.5258 23.1416 10.6241 38.9999 10.6241C44.0913 10.6241 49.0942 11.9729 53.4683 14.5242C57.7113 16.9994 61.2754 20.5437 63.7753 24.7739C64.0933 25.312 63.9149 26.0063 63.3765 26.3243C62.8386 26.6421 62.1442 26.464 61.8261 25.9255C57.0739 17.8838 48.3274 12.8881 38.9999 12.8881C24.39 12.8881 12.5037 24.7742 12.5037 39.3843C12.5037 53.9944 24.39 65.8805 38.9999 65.8805C53.6098 65.8805 65.4961 53.9944 65.4961 39.3843C65.4961 36.2906 64.9671 33.2587 63.9235 30.3732C63.711 29.7852 64.0151 29.1363 64.6032 28.9236C65.1907 28.7108 65.8399 29.0152 66.0527 29.6031C67.1858 32.7365 67.7602 36.0273 67.7602 39.3843C67.7601 55.2426 54.8582 68.1444 38.9999 68.1444Z" fill="#7DA2B0"/>
<path d="M38.9999 74.7194C34.925 74.7194 30.9269 74.0295 27.1163 72.6687C26.5275 72.4583 26.2206 71.8106 26.4309 71.2218C26.641 70.6332 27.2883 70.3257 27.8776 70.5364C31.4432 71.8099 35.1853 72.4554 38.9998 72.4554C57.2354 72.4554 72.0712 57.6197 72.0712 39.3842C72.0712 21.1487 57.2356 6.31294 38.9999 6.31294C20.7643 6.31294 5.92854 21.1487 5.92854 39.3842C5.92854 51.5821 12.61 62.7509 23.3656 68.5324C23.9162 68.8285 24.1228 69.5148 23.8267 70.0654C23.5307 70.6161 22.8441 70.8225 22.2937 70.5266C10.8029 64.3499 3.66455 52.4169 3.66455 39.3842C3.66455 29.9458 7.34005 21.0723 14.014 14.3984C20.6881 7.7243 29.5615 4.04895 38.9999 4.04895C48.4383 4.04895 57.3118 7.72445 63.9857 14.3984C70.6596 21.0723 74.3351 29.9458 74.3351 39.3842C74.3351 48.8226 70.6596 57.696 63.9857 64.37C57.3118 71.044 48.4383 74.7194 38.9999 74.7194Z" fill="#7DA2B0"/>
<path d="M39.0002 16.9111C38.375 16.9111 37.8682 16.4044 37.8682 15.7791V1.8776C37.8682 1.25229 38.375 0.745605 39.0002 0.745605C39.6253 0.745605 40.1321 1.25229 40.1321 1.8776V15.7791C40.1321 16.4044 39.6253 16.9111 39.0002 16.9111Z" fill="#688D97"/>
<path d="M39.0002 78.023C38.375 78.023 37.8682 77.5163 37.8682 76.891V62.9895C37.8682 62.3642 38.375 61.8575 39.0002 61.8575C39.6253 61.8575 40.1321 62.3642 40.1321 62.9895V76.891C40.1321 77.5163 39.6253 78.023 39.0002 78.023Z" fill="#688D97"/>
<path d="M76.5069 40.5163H62.6054C61.9802 40.5163 61.4734 40.0096 61.4734 39.3843C61.4734 38.759 61.9802 38.2523 62.6054 38.2523H76.5069C77.132 38.2523 77.6388 38.759 77.6388 39.3843C77.6388 40.0096 77.132 40.5163 76.5069 40.5163Z" fill="#688D97"/>
<path d="M15.3948 40.5163H1.49332C0.868159 40.5163 0.361328 40.0096 0.361328 39.3843C0.361328 38.759 0.868159 38.2523 1.49332 38.2523H15.3948C16.0199 38.2523 16.5268 38.759 16.5268 39.3843C16.5268 40.0096 16.0201 40.5163 15.3948 40.5163Z" fill="#688D97"/>
<path d="M56.4703 23.0459C56.1807 23.0459 55.8909 22.9354 55.6699 22.7144C55.2279 22.2722 55.2279 21.5556 55.6699 21.1135L58.8946 17.8888C59.3367 17.4469 60.0535 17.4469 60.4954 17.8888C60.9375 18.3311 60.9375 19.0477 60.4954 19.4898L57.2707 22.7144C57.0498 22.9354 56.76 23.0459 56.4703 23.0459Z" fill="#688D97"/>
<path d="M18.3051 61.2114C18.0154 61.2114 17.7256 61.1009 17.5047 60.88C17.0626 60.4377 17.0626 59.7211 17.5047 59.279L20.7293 56.0543C21.1714 55.6124 21.8882 55.6124 22.3301 56.0543C22.7722 56.4966 22.7722 57.2132 22.3301 57.6553L19.1054 60.88C18.8845 61.1009 18.5947 61.2114 18.3051 61.2114Z" fill="#688D97"/>
<path d="M59.695 61.2114C59.4054 61.2114 59.1156 61.1009 58.8946 60.88L55.6699 57.6553C55.2279 57.2131 55.2279 56.4964 55.6699 56.0543C56.112 55.6124 56.8288 55.6124 57.2707 56.0543L60.4954 59.279C60.9375 59.7213 60.9375 60.4379 60.4954 60.88C60.2744 61.1009 59.9848 61.2114 59.695 61.2114Z" fill="#688D97"/>
<path d="M21.5297 23.0459C21.2401 23.0459 20.9503 22.9354 20.7293 22.7144L17.5047 19.4898C17.0626 19.0475 17.0626 18.3309 17.5047 17.8888C17.9467 17.4469 18.6635 17.4469 19.1054 17.8888L22.3301 21.1135C22.7722 21.5557 22.7722 22.2723 22.3301 22.7144C22.1091 22.9354 21.8194 23.0459 21.5297 23.0459Z" fill="#688D97"/>
</g>
<defs>
<clipPath id="clip0_63_132">
<rect width="77.2773" height="77.2773" fill="white" transform="translate(0.361328 0.745605)"/>
</clipPath>
</defs>
</svg>
