<svg width="78" height="78" viewBox="0 0 78 78" fill="none" xmlns="http://www.w3.org/2000/svg">
<g clip-path="url(#clip0_63_241)">
<path d="M37.3003 25.7602V3.5658C25.0427 3.5658 15.106 13.5026 15.106 25.7602C15.106 38.0179 25.0427 47.9547 37.3004 47.9547C44.4434 47.9547 50.7953 44.578 54.8547 39.3363L54.8568 39.338C57.7638 35.5847 59.4948 30.875 59.4948 25.7602H37.3003Z" fill="#FF4C4C"/>
<path d="M52.5619 25.7601C52.5619 29.3478 51.7097 32.7359 50.1981 35.7348C47.0427 41.9952 41.0107 46.5574 33.8376 47.6838C34.6613 47.813 35.5 47.8966 36.3511 47.933C36.4015 47.9351 36.4521 47.9369 36.5027 47.9387C36.7675 47.9482 37.0332 47.9546 37.3005 47.9546C37.5095 47.9546 37.7178 47.9511 37.9255 47.9454C37.9916 47.9436 38.0574 47.9402 38.1234 47.9378C38.2654 47.9327 38.4073 47.9268 38.5485 47.919C38.6251 47.9147 38.7014 47.9094 38.7778 47.9045C38.9093 47.8959 39.0406 47.8864 39.1714 47.8753C39.2489 47.8688 39.3261 47.8621 39.4033 47.8548C39.5362 47.8423 39.6688 47.8284 39.8011 47.8136C39.8728 47.8056 39.9445 47.7978 40.0161 47.789C40.1632 47.771 40.3098 47.7511 40.456 47.7303C40.5108 47.7224 40.5659 47.7155 40.6205 47.7073C41.0291 47.6461 41.4342 47.5736 41.8351 47.4903C41.8722 47.4826 41.9091 47.474 41.9462 47.4662C42.1089 47.4314 42.271 47.3954 42.4323 47.3572C42.4827 47.3453 42.5329 47.3326 42.5831 47.3204C42.7334 47.2837 42.8832 47.2456 43.0323 47.2058C43.0818 47.1927 43.1312 47.1792 43.1805 47.1657C43.3363 47.1229 43.4913 47.0786 43.6457 47.0325C43.684 47.0211 43.7225 47.0099 43.7608 46.9983C43.9442 46.9426 44.1269 46.8848 44.3081 46.8244C44.3155 46.822 44.3228 46.8197 44.3302 46.8173C44.9298 46.617 45.518 46.392 46.0935 46.1431C46.0956 46.1422 46.0977 46.1413 46.0998 46.1404C46.2894 46.0584 46.4776 45.9737 46.6643 45.8867C46.6676 45.8851 46.671 45.8835 46.6743 45.882C49.8976 44.3767 52.6994 42.1194 54.855 39.3362L54.8571 39.3379C55.2137 38.8772 55.5526 38.4019 55.873 37.9135C55.8821 37.8998 55.8911 37.8862 55.9 37.8724C55.9722 37.762 56.0431 37.6507 56.1134 37.5389C56.1264 37.5182 56.1393 37.4975 56.1522 37.4769C56.222 37.3649 56.2909 37.2524 56.3587 37.1391C56.3661 37.1268 56.3732 37.1145 56.3806 37.1021C56.668 36.6199 56.9372 36.1259 57.1881 35.621C57.2044 35.5882 57.2208 35.5555 57.237 35.5226C57.2882 35.4183 57.3384 35.3134 57.3879 35.2082C57.4074 35.1667 57.4267 35.1252 57.446 35.0837C57.4937 34.9807 57.5411 34.8773 57.5873 34.7735C57.6054 34.7329 57.6231 34.6919 57.6409 34.6511C57.7927 34.3043 57.9358 33.9529 58.0703 33.5971C58.0864 33.5544 58.103 33.512 58.1189 33.4693C58.1539 33.3748 58.1876 33.2796 58.2214 33.1845C58.2434 33.1225 58.2654 33.0606 58.287 32.9982C58.3183 32.9077 58.3488 32.8168 58.3788 32.7258C58.4014 32.6576 58.4235 32.5891 58.4455 32.5205C58.4736 32.4325 58.5015 32.3444 58.5285 32.256C58.5512 32.1817 58.573 32.1071 58.5951 32.0324C58.62 31.9476 58.6452 31.8631 58.6692 31.7778C58.6956 31.6836 58.7207 31.589 58.7459 31.4942C58.7783 31.3727 58.8097 31.2507 58.84 31.1283C58.8645 31.0301 58.8891 30.9318 58.9122 30.833C58.9298 30.7575 58.9463 30.6816 58.9632 30.606C58.9834 30.5148 59.0036 30.4236 59.0228 30.3322C59.0388 30.256 59.0541 30.1794 59.0693 30.1031C59.0879 30.0093 59.1058 29.9154 59.1233 29.8213C59.1369 29.7476 59.1505 29.6741 59.1633 29.6003C59.1813 29.4971 59.1982 29.3935 59.2148 29.2898C59.2252 29.2245 59.2362 29.1591 59.246 29.0936C59.2696 28.9376 59.2915 28.7812 59.3119 28.6241C59.3162 28.5903 59.3202 28.5563 59.3244 28.5225C59.3428 28.3744 59.3598 28.2259 59.3752 28.0771C59.3816 28.016 59.3869 27.9545 59.3927 27.8934C59.4036 27.7802 59.4139 27.6669 59.4229 27.5532C59.4282 27.486 59.433 27.4189 59.4379 27.3516C59.4457 27.2414 59.4527 27.1309 59.4589 27.0203C59.4626 26.9536 59.4663 26.8868 59.4694 26.82C59.475 26.7015 59.4794 26.5826 59.483 26.4636C59.4848 26.406 59.4871 26.3485 59.4884 26.2907C59.4925 26.116 59.4951 25.9411 59.4951 25.7656C59.4951 25.7639 59.4951 25.7622 59.4951 25.7606H52.5619V25.7601Z" fill="#F33939"/>
<path d="M59.4947 25.7601H37.3003L54.8567 39.3379C57.7637 35.5845 59.4947 30.8748 59.4947 25.7601Z" fill="#FFB125"/>
<path d="M52.5618 25.7601C52.5618 29.3478 51.7096 32.7359 50.198 35.7348L54.8568 39.3379C55.2136 38.8772 55.5525 38.4019 55.8728 37.9135C55.8818 37.8998 55.8909 37.8862 55.8998 37.8724C55.9719 37.762 56.0429 37.6507 56.1132 37.5389C56.1262 37.5182 56.139 37.4975 56.152 37.4769C56.2217 37.3649 56.2907 37.2524 56.3585 37.1391C56.3658 37.1268 56.3729 37.1145 56.3803 37.1021C56.6677 36.6199 56.937 36.1259 57.1878 35.621C57.2041 35.5882 57.2206 35.5555 57.2367 35.5227C57.2879 35.4184 57.3382 35.3135 57.3877 35.2083C57.4071 35.1668 57.4265 35.1253 57.4458 35.0838C57.4936 34.9809 57.5409 34.8775 57.587 34.7737C57.6052 34.7331 57.6228 34.692 57.6406 34.6513C57.7925 34.3044 57.9355 33.953 58.07 33.5973C58.0862 33.5546 58.1028 33.5122 58.1186 33.4695C58.1536 33.375 58.1875 33.2797 58.2211 33.1846C58.2431 33.1226 58.2652 33.0607 58.2868 32.9984C58.318 32.9078 58.3483 32.817 58.3785 32.726C58.401 32.6576 58.4232 32.5892 58.4452 32.5207C58.4733 32.4327 58.5012 32.3446 58.5283 32.2561C58.5509 32.1818 58.5728 32.1073 58.5947 32.0326C58.6196 31.9478 58.6449 31.8632 58.6688 31.778C58.6952 31.6838 58.7202 31.5891 58.7454 31.4944C58.7779 31.3729 58.8093 31.2509 58.8396 31.1285C58.8641 31.0302 58.8885 30.932 58.9118 30.8331C58.9294 30.7577 58.9459 30.6817 58.9628 30.6061C58.983 30.515 59.0032 30.4238 59.0224 30.3323C59.0384 30.2561 59.0537 30.1796 59.0689 30.1032C59.0875 30.0095 59.1054 29.9156 59.1229 29.8214C59.1365 29.7478 59.1501 29.6743 59.1629 29.6005C59.1809 29.4972 59.1978 29.3937 59.2144 29.29C59.2248 29.2246 59.2358 29.1593 59.2456 29.0938C59.2692 28.9377 59.2911 28.7813 59.3113 28.6242C59.3157 28.5904 59.3196 28.5565 59.3238 28.5226C59.3422 28.3746 59.3593 28.2261 59.3748 28.0772C59.3812 28.0161 59.3865 27.9548 59.3923 27.8936C59.4032 27.7804 59.4135 27.667 59.4225 27.5534C59.428 27.4862 59.4328 27.419 59.4375 27.3517C59.4453 27.2415 59.4523 27.1311 59.4585 27.0204C59.4622 26.9537 59.4658 26.887 59.469 26.8201C59.4746 26.7016 59.4788 26.5827 59.4826 26.4638C59.4844 26.4061 59.4867 26.3486 59.488 26.2908C59.4921 26.1162 59.4947 25.9413 59.4947 25.7657C59.4947 25.7641 59.4948 25.7624 59.4948 25.7607H52.5618V25.7601Z" fill="#FF901D"/>
<path d="M6.50562 73.9065V48.1188C6.50562 47.5626 6.95645 47.1119 7.51248 47.1119H16.8351C17.3913 47.1119 17.842 47.5628 17.842 48.1188V73.9065H6.50562Z" fill="#FFB125"/>
<path d="M60.1584 73.9066V42.8642C60.1584 42.308 60.6093 41.8573 61.1653 41.8573H70.488C71.0441 41.8573 71.4948 42.3081 71.4948 42.8642V73.9066H60.1584Z" fill="#61AFF6"/>
<path d="M70.488 41.8572H63.6929C64.2489 41.8572 64.6997 42.308 64.6997 42.864V73.9064H71.4949V42.8642C71.4949 42.308 71.0442 41.8572 70.488 41.8572Z" fill="#55A2EF"/>
<path d="M42.2739 73.9066V52.9508C42.2739 52.3947 42.7248 51.944 43.2808 51.944H52.6034C53.1596 51.944 53.6103 52.3948 53.6103 52.9508V73.9066H42.2739Z" fill="#21D8DE"/>
<path d="M52.6038 51.944H46.8157V73.9066H53.6106V52.9508C53.6106 52.3948 53.16 51.944 52.6038 51.944Z" fill="#10C4C4"/>
<path d="M16.8352 47.1119H11.0471V73.9065H17.8422V48.1188C17.8422 47.5628 17.3914 47.1119 16.8352 47.1119Z" fill="#FF901D"/>
<path d="M24.3899 73.9065V61.0209C24.3899 60.4647 24.8407 60.014 25.3968 60.014H34.7192C35.2754 60.014 35.7261 60.4649 35.7261 61.0209V73.9065H24.3899Z" fill="#FF6D3A"/>
<path d="M34.719 60.014H28.9309V73.9066H35.726V61.0211C35.7262 60.4649 35.2753 60.014 34.719 60.014Z" fill="#ED5729"/>
<path d="M62.8493 20.9638C62.1608 9.87831 53.3358 0.997751 42.2739 0.222412V20.9638H62.8493Z" fill="#21D8DE"/>
<path d="M42.2739 0.222412V1.80056C49.9731 4.93769 55.5145 12.2728 56.0543 20.9638H62.8495C62.1608 9.87831 53.3358 0.997751 42.2739 0.222412Z" fill="#10C4C4"/>
<path d="M74.7434 77.4998H3.2573C2.73356 77.4998 2.30884 77.0752 2.30884 76.5514V74.3388C2.30884 73.8151 2.73341 73.3904 3.2573 73.3904H74.7432C75.267 73.3904 75.6917 73.815 75.6917 74.3388V76.5514C75.6917 77.0752 75.2671 77.4998 74.7434 77.4998Z" fill="#998675"/>
<path d="M74.7434 75.7364H3.2573C2.73356 75.7364 2.30884 75.3118 2.30884 74.788V76.5513C2.30884 77.075 2.73341 77.4998 3.2573 77.4998H74.7432C75.2669 77.4998 75.6915 77.0752 75.6915 76.5513V74.788C75.6917 75.3118 75.2671 75.7364 74.7434 75.7364Z" fill="#736357"/>
</g>
<defs>
<clipPath id="clip0_63_241">
<rect width="77.2773" height="77.2773" fill="white" transform="translate(0.361328 0.222412)"/>
</clipPath>
</defs>
</svg>
