<svg width="70" height="70" viewBox="0 0 70 70" fill="none" xmlns="http://www.w3.org/2000/svg">
<g clip-path="url(#clip0_18_472)">
<path d="M32.3341 58.8568C46.8175 58.8568 58.6004 47.0738 58.6004 32.5906C58.6004 18.1073 46.8173 6.32422 32.3341 6.32422C32.2774 6.32422 32.221 6.32518 32.1645 6.32614L32.0708 6.3275C31.5036 6.33285 31.0482 6.79705 31.0535 7.36422C31.0589 7.92811 31.5177 8.38149 32.0802 8.38149H32.0902L32.1995 8.37999C32.2443 8.37916 32.2891 8.37834 32.334 8.37834C37.7688 8.37834 42.791 10.1786 46.8361 13.2137L35.9982 28.0276H24.303C23.7357 28.0276 23.276 28.4874 23.276 29.0546C23.276 29.6218 23.7357 30.0816 24.303 30.0816H36.5193C36.8469 30.0816 37.1548 29.9253 37.3482 29.6609L48.4271 14.5176C49.3377 15.3293 50.1874 16.2079 50.9669 17.1468L42.6988 28.4483C42.4704 28.7605 42.4367 29.1744 42.6117 29.5193C42.7867 29.8643 43.1407 30.0816 43.5275 30.0816H56.4168C56.5021 30.9066 56.5464 31.7435 56.5464 32.5907C56.5464 32.9572 56.5368 33.3213 56.5206 33.6837H48.5844C48.0171 33.6837 47.5574 34.1435 47.5574 34.7107C47.5574 35.2779 48.0171 35.7377 48.5844 35.7377H56.3421C55.646 41.0767 53.2034 45.8739 49.6088 49.5374H36.9653C36.398 49.5374 35.9383 49.9972 35.9383 50.5644C35.9383 51.1315 36.398 51.5913 36.9653 51.5913H47.3242C43.1985 54.8532 37.99 56.803 32.3343 56.803C26.6785 56.803 21.47 54.8532 17.3443 51.5913H28.5827C29.15 51.5913 29.6097 51.1315 29.6097 50.5644C29.6097 49.9972 29.15 49.5374 28.5827 49.5374H15.0597C14.5901 49.0588 14.1396 48.5614 13.7108 48.0455L22.7152 35.7377H44.2079C44.7752 35.7377 45.2349 35.2779 45.2349 34.7107C45.2349 34.1435 44.7752 33.6837 44.2079 33.6837H22.1937C21.8662 33.6837 21.5582 33.84 21.3649 34.1044L12.4147 46.3379C11.6698 45.2618 11.0095 44.123 10.444 42.9308L16.0141 35.3171C16.2425 35.0049 16.2762 34.5909 16.1012 34.246C15.9262 33.901 15.5722 33.6837 15.1854 33.6837H8.1476C8.13144 33.3213 8.12186 32.957 8.12186 32.5907C8.12186 31.7483 8.16622 30.9115 8.25167 30.0816H12.0666C12.6339 30.0816 13.0936 29.6218 13.0936 29.0546C13.0936 28.4874 12.6339 28.0276 12.0666 28.0276H8.55292C8.81063 26.6784 9.18213 25.3529 9.66892 24.06C9.86884 23.5292 9.60059 22.9369 9.0697 22.7369C8.5395 22.5373 7.94672 22.8053 7.7468 23.3362C6.63272 26.2944 6.06787 29.4082 6.06787 32.5906C6.06773 47.0739 17.8508 58.8568 32.3341 58.8568ZM45.5515 28.0275L52.2618 18.8553C54.1357 21.5656 55.471 24.6747 56.1131 28.0275H45.5515ZM13.1615 35.7377L9.52391 40.71C8.95687 39.1217 8.55046 37.458 8.32616 35.7376H13.1615V35.7377Z" fill="black" fill-opacity="0.2"/>
<path d="M68.7587 61.6438L58.5883 51.4735C62.5364 46.0088 64.6687 39.4641 64.6687 32.5906C64.6687 23.9539 61.3052 15.8339 55.1982 9.72687C49.091 3.61968 40.9711 0.256348 32.3343 0.256348C31.0103 0.256348 29.6696 0.338644 28.3493 0.501046C27.7863 0.570197 27.3861 1.08273 27.4552 1.64566C27.5245 2.20873 28.0376 2.60871 28.5998 2.5397C29.8373 2.38756 31.0937 2.31047 32.3341 2.31047C40.4222 2.31047 48.0265 5.46019 53.7456 11.1794C59.4647 16.8987 62.6145 24.5027 62.6145 32.5909C62.6145 40.6791 59.4648 48.2831 53.7456 54.0023C48.0263 59.7214 40.4222 62.8712 32.3341 62.8712C24.2461 62.8712 16.6421 59.7212 10.923 54.0021C5.20371 48.2828 2.05399 40.6788 2.05399 32.5906C2.05399 27.5659 3.3102 22.5891 5.68667 18.1985C5.9567 17.6996 5.77115 17.0764 5.27245 16.8064C4.7736 16.5362 4.15042 16.7219 3.88039 17.2206C1.3418 21.9107 0 27.2255 0 32.5906C0 41.2274 3.36347 49.3473 9.47052 55.4544C15.5776 61.5614 23.6974 64.9249 32.3343 64.9249C39.4565 64.9249 46.2261 62.6356 51.8065 58.4087L54.8802 61.4824C55.0808 61.6829 55.3437 61.7832 55.6065 61.7832C55.8693 61.7832 56.1322 61.683 56.3328 61.4824C56.7338 61.0813 56.7338 60.431 56.3328 60.0301L53.4142 57.1115C54.026 56.5839 54.6211 56.0315 55.1982 55.4545C55.9487 54.704 56.6573 53.9226 57.3239 53.1139L67.3064 63.0963C67.719 63.5089 67.9461 64.0574 67.9461 64.6409C67.9461 65.2243 67.719 65.7729 67.3063 66.1855L66.4418 67.0499C66.0292 67.4625 65.4807 67.6897 64.8973 67.6897C64.314 67.6897 63.7653 67.4625 63.3529 67.0499L59.4277 63.1248C59.0265 62.7237 58.3763 62.7237 57.9753 63.1248C57.5742 63.5258 57.5742 64.1761 57.9753 64.5771L61.9004 68.5022C62.701 69.3027 63.7653 69.7437 64.8975 69.7437C66.0296 69.7437 67.094 69.3027 67.8945 68.5022L68.759 67.6378C69.5596 66.8373 70.0004 65.7729 70.0004 64.6407C70 63.5087 69.5591 62.4443 68.7587 61.6438Z" fill="black" fill-opacity="0.2"/>
<path d="M18.1847 5.1521C16.2328 5.1521 14.3804 5.99889 13.1021 7.47543C12.0444 8.69618 11.4619 10.2589 11.4619 11.8758C11.4619 15.5828 14.4777 18.5986 18.1847 18.5986C20.1369 18.5986 21.9896 17.7517 23.2673 16.2755C24.3252 15.0556 24.9076 13.4931 24.9076 11.8758C24.9076 8.16831 21.8918 5.1521 18.1847 5.1521ZM21.7149 14.9306C20.827 15.9563 19.5402 16.5446 18.1847 16.5446C15.6103 16.5446 13.5159 14.4502 13.5159 11.8758C13.5159 10.7528 13.9201 9.66772 14.6542 8.82038C14.6544 8.82025 14.6545 8.82025 14.6546 8.82011C15.5424 7.79435 16.8291 7.20609 18.1846 7.20609C20.7591 7.20609 22.8536 9.30088 22.8536 11.8758C22.8536 12.9987 22.4494 14.0835 21.7149 14.9306Z" fill="black" fill-opacity="0.2"/>
<path d="M13.6666 25.2877C14.3666 26.253 14.8494 27.3334 15.1012 28.4988L15.4567 30.1438C15.7323 31.4194 16.8798 32.3455 18.1849 32.3455C19.4899 32.3455 20.6374 31.4196 20.9133 30.1438L21.2688 28.4989C21.5207 27.3332 22.0033 26.253 22.7033 25.2877L24.1953 23.2306C24.5283 22.7715 24.4262 22.1292 23.9669 21.7962C23.5078 21.4632 22.8656 21.5654 22.5325 22.0246L21.0405 24.0818C20.1722 25.279 19.5736 26.6191 19.2611 28.065L18.9056 29.7098C18.8329 30.0468 18.5297 30.2915 18.1849 30.2915C17.8401 30.2915 17.5372 30.0469 17.4644 29.71L17.1089 28.065C16.7964 26.6194 16.1978 25.2792 15.3293 24.0819L10.5731 17.5235C9.35197 15.8809 8.70647 13.9278 8.70647 11.8753C8.70647 9.30127 9.72073 6.89291 11.5625 5.09402C13.4035 3.29583 15.836 2.33881 18.4142 2.39961C20.8583 2.45712 23.1628 3.45508 24.9032 5.2096C26.6437 6.96411 27.6234 9.27676 27.6622 11.7216C27.6954 13.8306 27.0503 15.8368 25.7895 17.5332L25.1211 18.4548C24.7881 18.9139 24.8904 19.556 25.3495 19.889C25.8086 20.222 26.4509 20.1199 26.7839 19.6606L27.4451 18.7488C28.9712 16.6958 29.7564 14.2545 29.7159 11.689C29.6686 8.71082 28.4775 5.89604 26.3614 3.7629C24.2451 1.62977 21.44 0.416276 18.4625 0.346166C15.325 0.272771 12.3672 1.4367 10.1273 3.6246C7.88652 5.81319 6.65234 8.74341 6.65234 11.8753C6.65234 14.3724 7.43806 16.7493 8.91734 18.7391L13.6666 25.2877Z" fill="black" fill-opacity="0.2"/>
<path d="M32.7743 52.8346C33.3416 52.8346 33.8013 52.3747 33.8013 51.8076V47.7634C35.6954 47.301 37.1056 45.5906 37.1056 43.5562C37.1056 41.1679 35.1627 39.2249 32.7743 39.2249C30.3859 39.2249 28.4429 41.1679 28.4429 43.5562C28.4429 45.5906 29.8533 47.301 31.7473 47.7634V51.8076C31.7473 52.3747 32.207 52.8346 32.7743 52.8346ZM30.4969 43.556C30.4969 42.3004 31.5185 41.2787 32.7743 41.2787C34.03 41.2787 35.0516 42.3004 35.0516 43.556C35.0516 44.8117 34.03 45.8333 32.7743 45.8333C31.5185 45.8333 30.4969 44.8117 30.4969 43.556Z" fill="black" fill-opacity="0.2"/>
</g>
<defs>
<clipPath id="clip0_18_472">
<rect width="70" height="70" fill="white"/>
</clipPath>
</defs>
</svg>
